<?xml version="1.0" encoding="UTF-8"?>
<svg xmlns="http://www.w3.org/2000/svg"
     xmlns:stickut="https://stickut.local/ns"
     viewBox="0 0 210 297" width="210mm" height="297mm">
  <metadata>
    <stickut:meta>
      <stickut:name>Arc-en-ciel &amp; nuages</stickut:name>
      <stickut:sticker-area x="15" y="50" width="180" height="232"/>
    </stickut:meta>
  </metadata>

  <text data-stickut="header-text"
        x="105" y="20" text-anchor="middle"
        font-family="Georgia, serif" font-size="11"
        font-weight="700"
        fill="#1f2933">Souvenirs</text>

  <!-- Rainbow (fixed pastel palette per spec) -->
  <g fill="none" stroke-width="3" stroke-linecap="round">
    <path d="M 50 45 a 55 35 0 0 1 110 0" stroke="#fca5a5"/>
    <path d="M 53 45 a 52 32 0 0 1 104 0" stroke="#fdba74"/>
    <path d="M 56 45 a 49 29 0 0 1 98 0" stroke="#fde68a"/>
    <path d="M 59 45 a 46 26 0 0 1 92 0" stroke="#bef264"/>
    <path d="M 62 45 a 43 23 0 0 1 86 0" stroke="#7dd3fc"/>
    <path d="M 65 45 a 40 20 0 0 1 80 0" stroke="#c4b5fd"/>
  </g>

  <!-- Clouds — recolored by user choice -->
  <g data-stickut="frame-color" fill="#cbd5e1">
    <path d="M 26 40 q 0 -7 7 -7 q 2 -4 7 -4 q 5 0 7 4 q 7 0 7 7 q 0 5 -7 5 l -14 0 q -7 0 -7 -5 z"/>
    <path d="M 162 35 q 0 -6 6 -6 q 2 -3 6 -3 q 4 0 6 3 q 6 0 6 6 q 0 4 -6 4 l -12 0 q -6 0 -6 -4 z"/>
    <!-- Bottom clouds -->
    <path d="M 28 285 q 0 -6 6 -6 q 2 -3 6 -3 q 4 0 6 3 q 6 0 6 6 q 0 4 -6 4 l -12 0 q -6 0 -6 -4 z"/>
    <path d="M 100 290 q 0 -6 6 -6 q 2 -3 6 -3 q 4 0 6 3 q 6 0 6 6 q 0 4 -6 4 l -12 0 q -6 0 -6 -4 z"/>
    <path d="M 165 285 q 0 -6 6 -6 q 2 -3 6 -3 q 4 0 6 3 q 6 0 6 6 q 0 4 -6 4 l -12 0 q -6 0 -6 -4 z"/>
  </g>
</svg>
