<?xml version="1.0" encoding="UTF-8"?>
<svg xmlns="http://www.w3.org/2000/svg"
     xmlns:stickut="https://stickut.local/ns"
     viewBox="0 0 210 297" width="210mm" height="297mm">
  <metadata>
    <stickut:meta>
      <stickut:name>Étoiles &amp; confettis</stickut:name>
      <stickut:sticker-area x="15" y="35" width="180" height="247"/>
    </stickut:meta>
  </metadata>

  <!-- Header text -->
  <text data-stickut="header-text"
        x="105" y="22" text-anchor="middle"
        font-family="Georgia, serif" font-size="11"
        font-weight="700"
        fill="#1f2933">Anniversaire</text>

  <!-- Top border decoration: stars and confetti -->
  <g data-stickut="frame-color" fill="#1f2933">
    <!-- Stars -->
    <path d="M 22 8 l 1.7 3.4 l 3.7 0.5 l -2.7 2.6 l 0.7 3.7 l -3.4 -1.8 l -3.4 1.8 l 0.7 -3.7 l -2.7 -2.6 l 3.7 -0.5 z"/>
    <path d="M 70 6 l 1.4 2.8 l 3 0.4 l -2.2 2.1 l 0.6 3 l -2.8 -1.4 l -2.8 1.4 l 0.6 -3 l -2.2 -2.1 l 3 -0.4 z"/>
    <path d="M 130 8 l 1.6 3.2 l 3.6 0.5 l -2.6 2.5 l 0.6 3.6 l -3.2 -1.7 l -3.2 1.7 l 0.6 -3.6 l -2.6 -2.5 l 3.6 -0.5 z"/>
    <path d="M 188 6 l 1.4 2.8 l 3 0.4 l -2.2 2.1 l 0.6 3 l -2.8 -1.4 l -2.8 1.4 l 0.6 -3 l -2.2 -2.1 l 3 -0.4 z"/>
    <!-- Confetti dots -->
    <circle cx="8" cy="20" r="1.4"/>
    <circle cx="40" cy="14" r="1.2"/>
    <circle cx="55" cy="22" r="1"/>
    <circle cx="90" cy="14" r="1.4"/>
    <circle cx="115" cy="22" r="1"/>
    <circle cx="155" cy="14" r="1.2"/>
    <circle cx="170" cy="22" r="1"/>
    <circle cx="200" cy="20" r="1.4"/>
    <!-- Bottom decoration -->
    <path d="M 22 290 l 1.7 3.4 l 3.7 0.5 l -2.7 2.6 l 0.7 3.7 l -3.4 -1.8 l -3.4 1.8 l 0.7 -3.7 l -2.7 -2.6 l 3.7 -0.5 z" transform="translate(0,-12)"/>
    <path d="M 105 290 l 1.6 3.2 l 3.6 0.5 l -2.6 2.5 l 0.6 3.6 l -3.2 -1.7 l -3.2 1.7 l 0.6 -3.6 l -2.6 -2.5 l 3.6 -0.5 z" transform="translate(0,-12)"/>
    <path d="M 188 290 l 1.4 2.8 l 3 0.4 l -2.2 2.1 l 0.6 3 l -2.8 -1.4 l -2.8 1.4 l 0.6 -3 l -2.2 -2.1 l 3 -0.4 z" transform="translate(0,-12)"/>
    <circle cx="40" cy="290" r="1.2"/>
    <circle cx="65" cy="285" r="1"/>
    <circle cx="135" cy="285" r="1"/>
    <circle cx="160" cy="290" r="1.2"/>
  </g>
</svg>
