<?xml version="1.0" encoding="UTF-8"?>
<svg xmlns="http://www.w3.org/2000/svg"
     xmlns:stickut="https://stickut.local/ns"
     viewBox="0 0 210 297" width="210mm" height="297mm">
  <metadata>
    <stickut:meta>
      <stickut:name>Vagues &amp; bulles</stickut:name>
      <stickut:sticker-area x="15" y="40" width="180" height="245"/>
    </stickut:meta>
  </metadata>

  <text data-stickut="header-text"
        x="105" y="22" text-anchor="middle"
        font-family="Georgia, serif" font-size="11"
        font-weight="700"
        fill="#1f2933">À la plage</text>

  <g data-stickut="frame-color" fill="none" stroke="#1f2933" stroke-width="1.6" stroke-linecap="round">
    <!-- Top waves -->
    <path d="M 5 32 q 8 -6 16 0 t 16 0 t 16 0 t 16 0 t 16 0 t 16 0 t 16 0 t 16 0 t 16 0 t 16 0 t 16 0 t 16 0 t 16 0"/>
    <path d="M 5 36 q 8 -4 16 0 t 16 0 t 16 0 t 16 0 t 16 0 t 16 0 t 16 0 t 16 0 t 16 0 t 16 0 t 16 0 t 16 0 t 16 0"/>
    <!-- Bottom waves -->
    <path d="M 5 290 q 8 -6 16 0 t 16 0 t 16 0 t 16 0 t 16 0 t 16 0 t 16 0 t 16 0 t 16 0 t 16 0 t 16 0 t 16 0 t 16 0"/>
  </g>

  <g data-stickut="frame-color" fill="#1f2933">
    <!-- Bubbles -->
    <circle cx="20" cy="14" r="1.3"/>
    <circle cx="48" cy="10" r="1"/>
    <circle cx="80" cy="14" r="1.6"/>
    <circle cx="130" cy="10" r="1"/>
    <circle cx="170" cy="14" r="1.3"/>
    <circle cx="195" cy="10" r="1"/>
    <circle cx="32" cy="284" r="1.3"/>
    <circle cx="92" cy="285" r="1"/>
    <circle cx="155" cy="284" r="1.3"/>
  </g>
</svg>
